<?xml version="1.0" encoding="utf-8"?>
<!-- Generator: Adobe Illustrator 24.0.1, SVG Export Plug-In . SVG Version: 6.00 Build 0)  -->
<svg version="1.1" id="Layer_1" xmlns="http://www.w3.org/2000/svg" xmlns:xlink="http://www.w3.org/1999/xlink" x="0px" y="0px"
	 viewBox="0 0 3266 3266" style="enable-background:new 0 0 3266 3266;" xml:space="preserve">
<style type="text/css">
	.st0{fill:#FFFFFF;}
</style>
<g>
	<path class="st0" d="M1049.95,1204.9l803.31-41.46c30.75-1.59,56.33,23.37,55.49,54.15l-6.25,230
		c-0.7,25.73-19.85,47.2-45.34,50.83l-229.81,32.68c-25.91,3.68-45.21,25.79-45.36,51.96l-0.4,69.89
		c-0.12,21.32,12.59,40.62,32.23,48.93l492.55,208.24c29.18,12.34,62.57-3.63,71.3-34.08l11.65-40.65
		c6.75-23.56-3.6-48.66-24.98-60.62l-99.85-55.83c-24.92-13.94-34.25-45.16-21.05-70.48l457.76-877.94
		c21-40.28-15.3-86.51-59.41-75.67l-1410.04,346.54c-24.52,6.03-41.34,28.58-40.13,53.8l2.87,59.54
		C995.91,1183.91,1020.77,1206.4,1049.95,1204.9z"/>
	<path class="st0" d="M1439.93,1330.08l62.3,1209.02c1.55,30.04-22.28,55.3-52.37,55.5l-444.54,2.97
		c-35.82,0.24-61.47-34.5-50.7-68.67l382.24-1211.99c7.48-23.73,30.52-39.01,55.29-36.68h0
		C1418.24,1282.69,1438.58,1303.91,1439.93,1330.08z"/>
</g>
</svg>
